<?xml version="1.0" standalone="no"?>
<!DOCTYPE svg PUBLIC "-//W3C//DTD SVG 20010904//EN"
 "http://www.w3.org/TR/2001/REC-SVG-20010904/DTD/svg10.dtd">
<svg version="1.0" xmlns="http://www.w3.org/2000/svg"
 width="128.000000pt" height="128.000000pt" viewBox="0 0 128.000000 128.000000"
 preserveAspectRatio="xMidYMid meet">
<metadata>
Created by potrace 1.11, written by Peter Selinger 2001-2013
</metadata>
<g transform="translate(0.000000,128.000000) scale(0.100000,-0.100000)"
fill="#000000" stroke="none">
<path d="M114 1148 l6 -83 57 -57 56 -56 -1 -146 c0 -133 5 -177 33 -266 l7
-25 -24 23 c-13 12 -31 22 -39 22 -13 0 -59 -77 -59 -99 0 -4 16 -25 36 -46
l35 -38 -67 -69 c-38 -37 -76 -68 -85 -68 -9 0 -28 -12 -43 -26 -58 -59 -17
-154 67 -154 42 0 87 35 87 67 0 10 31 49 69 87 l70 69 34 -37 c19 -20 39 -36
45 -36 6 0 32 10 57 22 46 22 56 43 33 67 -11 12 -9 13 7 6 106 -40 198 -39
280 3 l30 15 -19 -21 c-24 -28 -16 -47 33 -72 53 -27 59 -26 102 16 l37 36 66
-66 c37 -36 66 -74 66 -85 0 -29 56 -71 94 -71 43 0 73 23 85 67 14 50 -8 89
-62 113 -23 10 -68 44 -100 77 l-57 59 39 38 39 38 -15 38 c-9 22 -25 49 -36
60 l-19 22 -35 -34 -35 -33 14 30 c30 60 32 74 37 382 1 21 11 42 34 66 76 80
79 85 85 139 10 99 10 103 -18 102 -14 0 -51 -4 -84 -8 -54 -7 -62 -12 -120
-71 l-62 -64 -119 61 -119 61 -120 -60 -121 -59 -58 61 c-55 58 -61 62 -128
73 -110 19 -102 24 -95 -70z"/>
</g>
</svg>
